<?xml version="1.0" encoding="UTF-8"?>
<svg id="_Слой_2" data-name="Слой 2" xmlns="http://www.w3.org/2000/svg" width="140.58" height="43.55" viewBox="0 0 140.58 43.55">
  <defs>
    <style>
      .cls-1 {
        fill: #fff;
      }

      .cls-2 {
        fill: #ff96ea;
      }
    </style>
  </defs>
  <g id="big-logotype">
    <g id="big-logotype-2" data-name="big-logotype">
      <g>
        <path class="cls-1" d="m27.54.43l-10.91,25.2h-5.76L0,.43h6.3l7.67,18L21.74.43h5.8Z"/>
        <path class="cls-1" d="m49.14,20.95v4.68h-19.51V.43h19.04v4.68h-13.25v5.47h11.7v4.54h-11.7v5.83h13.72Z"/>
        <path class="cls-2" d="m76.9.43v25.2h-4.79l-12.56-15.3v15.3h-5.76V.43h4.82l12.53,15.3V.43h5.76Zm5.98,0h5.83v25.2h-5.83V.43Zm16.9,23.96c-2.08-1.12-3.71-2.66-4.9-4.64-1.19-1.98-1.78-4.22-1.78-6.71s.59-4.73,1.78-6.71,2.82-3.53,4.9-4.64c2.08-1.12,4.41-1.67,7-1.67,2.18,0,4.16.38,5.92,1.15,1.76.77,3.25,1.87,4.45,3.31l-3.74,3.46c-1.7-1.97-3.82-2.95-6.34-2.95-1.56,0-2.95.34-4.18,1.03-1.22.68-2.18,1.64-2.86,2.86s-1.03,2.62-1.03,4.18.34,2.95,1.03,4.18c.68,1.22,1.64,2.18,2.86,2.86,1.22.68,2.62,1.03,4.18,1.03,2.52,0,4.63-1,6.34-2.99l3.74,3.46c-1.2,1.46-2.69,2.58-4.46,3.35-1.78.77-3.76,1.15-5.94,1.15-2.57,0-4.89-.56-6.97-1.67Zm40.81-3.44v4.68h-19.51V.43h19.04v4.68h-13.25v5.47h11.7v4.54h-11.7v5.83h13.72Z"/>
      </g>
      <g>
        <path class="cls-1" d="m48.95,43.34l-2.43-3.51h-2.68v3.51h-2.92v-12.6h5.45c1.12,0,2.08.19,2.91.56.82.37,1.46.9,1.9,1.58s.67,1.49.67,2.43-.23,1.74-.67,2.42c-.45.68-1.09,1.2-1.92,1.56l2.83,4.05h-3.13Zm-.74-9.66c-.46-.38-1.12-.57-2-.57h-2.38v4.39h2.38c.88,0,1.54-.19,2-.58.46-.38.68-.92.68-1.62s-.23-1.25-.68-1.63Z"/>
        <path class="cls-1" d="m56.71,42.71c-1.05-.56-1.87-1.34-2.47-2.33-.59-.99-.89-2.1-.89-3.34s.3-2.35.89-3.34c.59-.99,1.42-1.77,2.47-2.33,1.05-.56,2.23-.85,3.54-.85s2.48.28,3.53.85c1.04.56,1.87,1.34,2.47,2.33.6.99.9,2.1.9,3.34s-.3,2.35-.9,3.34c-.6.99-1.42,1.77-2.47,2.33s-2.22.85-3.53.85-2.49-.28-3.54-.85Zm5.55-2.15c.6-.34,1.07-.82,1.41-1.43.34-.61.51-1.31.51-2.09s-.17-1.48-.51-2.09c-.34-.61-.81-1.09-1.41-1.43-.6-.34-1.27-.51-2.02-.51s-1.42.17-2.02.51c-.6.34-1.07.82-1.41,1.43-.34.61-.51,1.31-.51,2.09s.17,1.48.51,2.09c.34.61.81,1.09,1.41,1.43.6.34,1.27.51,2.02.51s1.42-.17,2.02-.51Z"/>
        <path class="cls-1" d="m69.34,30.74h2.92v10.22h6.32v2.38h-9.23v-12.6Z"/>
        <path class="cls-1" d="m89.97,41v2.34h-9.76v-12.6h9.52v2.34h-6.62v2.74h5.85v2.27h-5.85v2.92h6.86Z"/>
        <path class="cls-2" d="m100.65,31.3c.82.37,1.46.9,1.9,1.58s.67,1.49.67,2.43-.22,1.73-.67,2.42-1.08,1.22-1.9,1.58c-.82.37-1.79.55-2.91.55h-2.54v3.47h-2.92v-12.6h5.45c1.12,0,2.08.19,2.91.56Zm-1.07,5.62c.46-.38.68-.92.68-1.61s-.23-1.25-.68-1.63c-.46-.38-1.12-.57-2-.57h-2.38v4.37h2.38c.88,0,1.54-.19,2-.57Zm5.71-6.18h2.92v10.22h6.32v2.38h-9.23v-12.6Zm19.28,9.9h-5.85l-1.12,2.7h-2.99l5.62-12.6h2.88l5.63,12.6h-3.06l-1.12-2.7Zm-.92-2.21l-2-4.82-2,4.82h4Zm11.68.45v4.46h-2.92v-4.5l-4.88-8.1h3.1l3.37,5.6,3.37-5.6h2.86l-4.9,8.14Z"/>
      </g>
    </g>
  </g>
</svg>