<?xml version="1.0" encoding="UTF-8"?>
<svg id="_Слой_2" data-name="Слой 2" xmlns="http://www.w3.org/2000/svg" width="61.75" height="47.76" viewBox="0 0 61.75 47.76">
  <defs>
    <style>
      .cls-1 {
        fill: #999;
      }
    </style>
  </defs>
  <g id="eye">
    <g>
      <path class="cls-1" d="m30.87,47.76c-12.84,0-23.58-11.28-28.84-18-2.71-3.46-2.71-8.3,0-11.76C7.29,11.28,18.03,0,30.87,0s23.58,11.28,28.84,18h0c2.71,3.46,2.71,8.3,0,11.76-5.26,6.72-16,18-28.84,18Zm0-41.76c-10.68,0-20.43,10.98-24.12,15.7-1.01,1.29-1.01,3.08,0,4.37,3.69,4.72,13.43,15.7,24.12,15.7s20.43-10.98,24.12-15.7c1.01-1.29,1.01-3.08,0-4.37-3.69-4.72-13.43-15.69-24.12-15.69Z"/>
      <g>
        <path class="cls-1" d="m32.45,15.99c-5.65-1.08-10.54,3.81-9.46,9.46.6,3.16,3.15,5.71,6.31,6.31,5.65,1.08,10.54-3.81,9.46-9.46-.6-3.16-3.15-5.71-6.31-6.31Z"/>
        <path class="cls-1" d="m57.36,19.85c-4.75-6.07-14.82-16.85-26.48-16.85S9.14,13.78,4.39,19.85c-1.86,2.37-1.85,5.68,0,8.06,4.75,6.07,14.82,16.85,26.48,16.85s21.74-10.78,26.48-16.85c1.86-2.37,1.86-5.68,0-8.06Zm-24.65,17.95c-9.17,1.16-16.91-6.58-15.75-15.75.79-6.25,5.84-11.3,12.09-12.09,9.17-1.17,16.92,6.58,15.75,15.75-.79,6.25-5.84,11.3-12.09,12.09Z"/>
      </g>
    </g>
  </g>
</svg>