<?xml version="1.0" encoding="UTF-8"?>
<svg id="_Слой_2" data-name="Слой 2" xmlns="http://www.w3.org/2000/svg" width="140.58" height="26.06" viewBox="0 0 140.58 26.06">
  <defs>
    <style>
      .cls-1 {
        fill: #fff;
      }

      .cls-2 {
        fill: #ff96ea;
      }
    </style>
  </defs>
  <g id="big-logotype-prototype-2">
    <g id="big-logotype-prototype-2-2" data-name="big-logotype-prototype-2">
      <g>
        <path class="cls-1" d="m27.54.43l-10.91,25.2h-5.76L0,.43h6.3l7.67,18L21.74.43h5.8Z"/>
        <path class="cls-1" d="m49.14,20.95v4.68h-19.51V.43h19.04v4.68h-13.25v5.47h11.7v4.54h-11.7v5.83h13.72Z"/>
        <path class="cls-2" d="m76.9.43v25.2h-4.79l-12.56-15.3v15.3h-5.76V.43h4.82l12.53,15.3V.43h5.76Zm5.98,0h5.83v25.2h-5.83V.43Zm16.9,23.96c-2.08-1.12-3.71-2.66-4.9-4.64-1.19-1.98-1.78-4.22-1.78-6.71s.59-4.73,1.78-6.71,2.82-3.53,4.9-4.64c2.08-1.12,4.41-1.67,7-1.67,2.18,0,4.16.38,5.92,1.15,1.76.77,3.25,1.87,4.45,3.31l-3.74,3.46c-1.7-1.97-3.82-2.95-6.34-2.95-1.56,0-2.95.34-4.18,1.03-1.22.68-2.18,1.64-2.86,2.86s-1.03,2.62-1.03,4.18.34,2.95,1.03,4.18c.68,1.22,1.64,2.18,2.86,2.86,1.22.68,2.62,1.03,4.18,1.03,2.52,0,4.63-1,6.34-2.99l3.74,3.46c-1.2,1.46-2.69,2.58-4.46,3.35-1.78.77-3.76,1.15-5.94,1.15-2.57,0-4.89-.56-6.97-1.67Zm40.81-3.44v4.68h-19.51V.43h19.04v4.68h-13.25v5.47h11.7v4.54h-11.7v5.83h13.72Z"/>
      </g>
    </g>
  </g>
</svg>