<?xml version="1.0" encoding="UTF-8"?>
<svg id="_Слой_2" data-name="Слой 2" xmlns="http://www.w3.org/2000/svg" width="57.59" height="69.2" viewBox="0 0 57.59 69.2">
  <defs>
    <style>
      .cls-1 {
        fill: #999;
      }
    </style>
  </defs>
  <g id="password">
    <g>
      <path class="cls-1" d="m52.82,30.5h-7v-6.47c0-9.39-7.64-17.03-17.03-17.03S11.77,14.64,11.77,24.03v6.47h-7v-6.47C4.77,10.78,15.55,0,28.8,0s24.03,10.78,24.03,24.03v6.47Z"/>
      <path class="cls-1" d="m42.59,69.2H15c-8.27,0-15-6.73-15-15v-12.7c0-8.27,6.73-15,15-15h27.59c8.27,0,15,6.73,15,15v12.7c0,8.27-6.73,15-15,15ZM15,32.5c-4.96,0-9,4.04-9,9v12.7c0,4.96,4.04,9,9,9h27.59c4.96,0,9-4.04,9-9v-12.7c0-4.96-4.04-9-9-9H15Z"/>
      <path class="cls-1" d="m42.59,29.5H15c-6.6,0-12,5.4-12,12v12.7c0,6.6,5.4,12,12,12h27.59c6.6,0,12-5.4,12-12v-12.7c0-6.6-5.4-12-12-12Zm-9.29,20.72v4.81c0,2.49-2.02,4.51-4.51,4.51h0c-2.49,0-4.51-2.02-4.51-4.51v-4.81c-1.97-1.41-3.25-3.7-3.25-6.31,0-4.28,3.47-7.76,7.76-7.76s7.76,3.47,7.76,7.76c0,2.6-1.29,4.9-3.25,6.31Z"/>
    </g>
  </g>
</svg>