<?xml version="1.0" encoding="UTF-8"?>
<svg id="_Слой_2" data-name="Слой 2" xmlns="http://www.w3.org/2000/svg" width="57.59" height="69.2" viewBox="0 0 57.59 69.2">
  <defs>
    <style>
      .cls-1 {
        fill: #ff96ea;
      }
    </style>
  </defs>
  <g id="password">
    <path id="password-2" data-name="password" class="cls-1" d="m52.76,30.5h.07v-6.47C52.82,10.78,42.04,0,28.8,0S4.77,10.78,4.77,24.03v6.47h.07c-2.97,2.74-4.84,6.65-4.84,11v12.7c0,8.27,6.73,15,15,15h27.59c8.27,0,15-6.73,15-15v-12.7c0-4.35-1.87-8.26-4.84-11Zm-19.45,19.72v4.81c0,2.49-2.02,4.51-4.51,4.51h0c-2.49,0-4.51-2.02-4.51-4.51v-4.81c-1.97-1.41-3.25-3.7-3.25-6.31,0-4.28,3.47-7.76,7.76-7.76s7.76,3.47,7.76,7.76c0,2.6-1.29,4.9-3.25,6.31ZM11.77,24.03c0-9.39,7.64-17.03,17.03-17.03s17.03,7.64,17.03,17.03v2.83c-1.04-.23-2.12-.36-3.23-.36H15c-1.11,0-2.19.13-3.23.36v-2.83Z"/>
  </g>
</svg>