<?xml version="1.0" encoding="UTF-8"?>
<svg id="_Слой_2" data-name="Слой 2" xmlns="http://www.w3.org/2000/svg" width="61.9" height="59.17" viewBox="0 0 61.9 59.17">
  <defs>
    <style>
      .cls-1 {
        fill: #999;
      }
    </style>
  </defs>
  <g id="promocode">
    <path class="cls-1" d="m33.64,1.67l7.24,14.67c.44.89,1.28,1.5,2.26,1.64l16.19,2.35c2.46.36,3.44,3.38,1.66,5.12l-11.72,11.42c-.71.69-1.03,1.68-.86,2.66l2.77,16.12c.42,2.45-2.15,4.32-4.35,3.16l-14.48-7.61c-.87-.46-1.92-.46-2.79,0l-14.48,7.61c-2.2,1.16-4.77-.71-4.35-3.16l2.77-16.12c.17-.97-.16-1.97-.86-2.66L.91,25.45c-1.78-1.74-.8-4.76,1.66-5.12l16.19-2.35c.98-.14,1.82-.76,2.26-1.64L28.26,1.67c1.1-2.23,4.28-2.23,5.38,0Z"/>
  </g>
</svg>