<?xml version="1.0" encoding="UTF-8"?>
<svg id="_Слой_2" data-name="Слой 2" xmlns="http://www.w3.org/2000/svg" width="74.37" height="74.37" viewBox="0 0 74.37 74.37">
  <defs>
    <style>
      .cls-1 {
        fill: #999;
      }
    </style>
  </defs>
  <g id="user">
    <path class="cls-1" d="m37.19,0C16.65,0,0,16.65,0,37.19s16.65,37.19,37.19,37.19,37.19-16.65,37.19-37.19S57.72,0,37.19,0Zm0,10.62c7.64,0,13.84,6.2,13.84,13.84s-6.2,13.84-13.84,13.84-13.84-6.2-13.84-13.84,6.2-13.84,13.84-13.84Zm19.61,48.16c-5.19,4.71-12.07,7.59-19.61,7.59s-14.43-2.88-19.61-7.59c-1.99-1.81-2.5-4.82-1.18-7.16,2.8-4.95,8.1-8.32,14.17-8.32h13.23c6.07,0,11.37,3.37,14.17,8.32,1.32,2.35.82,5.35-1.18,7.16Z"/>
  </g>
</svg>